<mxfile host="app.diagrams.net" modified="2020-07-20T13:48:22.799Z" agent="5.0 (Windows)" etag="0idzKV9pfhrI6BMpZWwA" version="13.4.9" type="github">
  <diagram id="LEkHGQUyaNtwdeFbwbUp" name="Page-1">
    <mxGraphModel dx="1038" dy="575" grid="1" gridSize="10" guides="1" tooltips="1" connect="1" arrows="1" fold="1" page="1" pageScale="1" pageWidth="827" pageHeight="1169" math="0" shadow="0">
      <root>
        <mxCell id="0" />
        <mxCell id="1" parent="0" />
        <mxCell id="l15Z7uQvLa0CSZMD8hMT-1" value="Focus Question: 计算机软件有哪些类别" style="rounded=0;whiteSpace=wrap;html=1;" vertex="1" parent="1">
          <mxGeometry x="224" y="10" width="380" height="50" as="geometry" />
        </mxCell>
        <mxCell id="l15Z7uQvLa0CSZMD8hMT-64" style="edgeStyle=orthogonalEdgeStyle;rounded=0;orthogonalLoop=1;jettySize=auto;html=1;" edge="1" parent="1" source="l15Z7uQvLa0CSZMD8hMT-2" target="l15Z7uQvLa0CSZMD8hMT-5">
          <mxGeometry relative="1" as="geometry" />
        </mxCell>
        <mxCell id="l15Z7uQvLa0CSZMD8hMT-70" value="&lt;div&gt;包括&lt;/div&gt;" style="edgeLabel;html=1;align=center;verticalAlign=middle;resizable=0;points=[];" vertex="1" connectable="0" parent="l15Z7uQvLa0CSZMD8hMT-64">
          <mxGeometry x="-0.2647" y="-1" relative="1" as="geometry">
            <mxPoint y="-9" as="offset" />
          </mxGeometry>
        </mxCell>
        <mxCell id="l15Z7uQvLa0CSZMD8hMT-65" style="edgeStyle=orthogonalEdgeStyle;rounded=0;orthogonalLoop=1;jettySize=auto;html=1;exitX=1;exitY=0.5;exitDx=0;exitDy=0;" edge="1" parent="1" source="l15Z7uQvLa0CSZMD8hMT-2" target="l15Z7uQvLa0CSZMD8hMT-4">
          <mxGeometry relative="1" as="geometry" />
        </mxCell>
        <mxCell id="l15Z7uQvLa0CSZMD8hMT-71" value="包括" style="edgeLabel;html=1;align=center;verticalAlign=middle;resizable=0;points=[];" vertex="1" connectable="0" parent="l15Z7uQvLa0CSZMD8hMT-65">
          <mxGeometry x="-0.3367" y="-5" relative="1" as="geometry">
            <mxPoint y="-15" as="offset" />
          </mxGeometry>
        </mxCell>
        <mxCell id="l15Z7uQvLa0CSZMD8hMT-2" value="软件的类别" style="rounded=0;whiteSpace=wrap;html=1;" vertex="1" parent="1">
          <mxGeometry x="354" y="70" width="120" height="60" as="geometry" />
        </mxCell>
        <mxCell id="l15Z7uQvLa0CSZMD8hMT-3" value="系统软件" style="rounded=0;whiteSpace=wrap;html=1;" vertex="1" parent="1">
          <mxGeometry x="180" y="190" width="120" height="50" as="geometry" />
        </mxCell>
        <mxCell id="l15Z7uQvLa0CSZMD8hMT-51" style="edgeStyle=orthogonalEdgeStyle;rounded=0;orthogonalLoop=1;jettySize=auto;html=1;exitX=0.5;exitY=1;exitDx=0;exitDy=0;entryX=0.5;entryY=0;entryDx=0;entryDy=0;" edge="1" parent="1" source="l15Z7uQvLa0CSZMD8hMT-4" target="l15Z7uQvLa0CSZMD8hMT-18">
          <mxGeometry relative="1" as="geometry" />
        </mxCell>
        <mxCell id="l15Z7uQvLa0CSZMD8hMT-52" style="edgeStyle=orthogonalEdgeStyle;rounded=0;orthogonalLoop=1;jettySize=auto;html=1;entryX=0.5;entryY=0;entryDx=0;entryDy=0;" edge="1" parent="1" source="l15Z7uQvLa0CSZMD8hMT-4" target="l15Z7uQvLa0CSZMD8hMT-19">
          <mxGeometry relative="1" as="geometry" />
        </mxCell>
        <mxCell id="l15Z7uQvLa0CSZMD8hMT-53" style="edgeStyle=orthogonalEdgeStyle;rounded=0;orthogonalLoop=1;jettySize=auto;html=1;entryX=0.5;entryY=0;entryDx=0;entryDy=0;" edge="1" parent="1" source="l15Z7uQvLa0CSZMD8hMT-4" target="l15Z7uQvLa0CSZMD8hMT-22">
          <mxGeometry relative="1" as="geometry" />
        </mxCell>
        <mxCell id="l15Z7uQvLa0CSZMD8hMT-66" style="edgeStyle=orthogonalEdgeStyle;rounded=0;orthogonalLoop=1;jettySize=auto;html=1;" edge="1" parent="1" source="l15Z7uQvLa0CSZMD8hMT-4" target="l15Z7uQvLa0CSZMD8hMT-5">
          <mxGeometry relative="1" as="geometry" />
        </mxCell>
        <mxCell id="l15Z7uQvLa0CSZMD8hMT-69" style="edgeStyle=orthogonalEdgeStyle;rounded=0;orthogonalLoop=1;jettySize=auto;html=1;" edge="1" parent="1" source="l15Z7uQvLa0CSZMD8hMT-4" target="l15Z7uQvLa0CSZMD8hMT-17">
          <mxGeometry relative="1" as="geometry" />
        </mxCell>
        <mxCell id="l15Z7uQvLa0CSZMD8hMT-4" value="应用软件" style="rounded=0;whiteSpace=wrap;html=1;" vertex="1" parent="1">
          <mxGeometry x="520" y="190" width="120" height="50" as="geometry" />
        </mxCell>
        <mxCell id="l15Z7uQvLa0CSZMD8hMT-37" style="edgeStyle=orthogonalEdgeStyle;rounded=0;orthogonalLoop=1;jettySize=auto;html=1;exitX=0.5;exitY=1;exitDx=0;exitDy=0;entryX=0.5;entryY=0;entryDx=0;entryDy=0;" edge="1" parent="1" source="l15Z7uQvLa0CSZMD8hMT-5" target="l15Z7uQvLa0CSZMD8hMT-6">
          <mxGeometry relative="1" as="geometry" />
        </mxCell>
        <mxCell id="l15Z7uQvLa0CSZMD8hMT-5" value="系统软件" style="rounded=0;whiteSpace=wrap;html=1;" vertex="1" parent="1">
          <mxGeometry x="180" y="190" width="120" height="50" as="geometry" />
        </mxCell>
        <mxCell id="l15Z7uQvLa0CSZMD8hMT-43" style="edgeStyle=orthogonalEdgeStyle;rounded=0;orthogonalLoop=1;jettySize=auto;html=1;exitX=0.5;exitY=1;exitDx=0;exitDy=0;entryX=0.5;entryY=0;entryDx=0;entryDy=0;" edge="1" parent="1" source="l15Z7uQvLa0CSZMD8hMT-6" target="l15Z7uQvLa0CSZMD8hMT-14">
          <mxGeometry relative="1" as="geometry" />
        </mxCell>
        <mxCell id="l15Z7uQvLa0CSZMD8hMT-44" style="edgeStyle=orthogonalEdgeStyle;rounded=0;orthogonalLoop=1;jettySize=auto;html=1;entryX=0.5;entryY=0;entryDx=0;entryDy=0;" edge="1" parent="1" source="l15Z7uQvLa0CSZMD8hMT-6" target="l15Z7uQvLa0CSZMD8hMT-13">
          <mxGeometry relative="1" as="geometry" />
        </mxCell>
        <mxCell id="l15Z7uQvLa0CSZMD8hMT-6" value="操作系统" style="rounded=0;whiteSpace=wrap;html=1;" vertex="1" parent="1">
          <mxGeometry x="180" y="280" width="120" height="50" as="geometry" />
        </mxCell>
        <mxCell id="l15Z7uQvLa0CSZMD8hMT-45" style="edgeStyle=orthogonalEdgeStyle;rounded=0;orthogonalLoop=1;jettySize=auto;html=1;exitX=0.5;exitY=1;exitDx=0;exitDy=0;entryX=0.5;entryY=0;entryDx=0;entryDy=0;" edge="1" parent="1" source="l15Z7uQvLa0CSZMD8hMT-13" target="l15Z7uQvLa0CSZMD8hMT-30">
          <mxGeometry relative="1" as="geometry" />
        </mxCell>
        <mxCell id="l15Z7uQvLa0CSZMD8hMT-13" value="文件系统" style="rounded=0;whiteSpace=wrap;html=1;" vertex="1" parent="1">
          <mxGeometry x="80" y="380" width="100" height="50" as="geometry" />
        </mxCell>
        <mxCell id="l15Z7uQvLa0CSZMD8hMT-46" style="edgeStyle=orthogonalEdgeStyle;rounded=0;orthogonalLoop=1;jettySize=auto;html=1;exitX=0.5;exitY=1;exitDx=0;exitDy=0;" edge="1" parent="1" source="l15Z7uQvLa0CSZMD8hMT-14" target="l15Z7uQvLa0CSZMD8hMT-31">
          <mxGeometry relative="1" as="geometry" />
        </mxCell>
        <mxCell id="l15Z7uQvLa0CSZMD8hMT-14" value="驱动程序" style="rounded=0;whiteSpace=wrap;html=1;" vertex="1" parent="1">
          <mxGeometry x="240" y="380" width="100" height="50" as="geometry" />
        </mxCell>
        <mxCell id="l15Z7uQvLa0CSZMD8hMT-47" style="edgeStyle=orthogonalEdgeStyle;rounded=0;orthogonalLoop=1;jettySize=auto;html=1;exitX=0.5;exitY=1;exitDx=0;exitDy=0;entryX=0.5;entryY=0;entryDx=0;entryDy=0;" edge="1" parent="1" source="l15Z7uQvLa0CSZMD8hMT-17" target="l15Z7uQvLa0CSZMD8hMT-23">
          <mxGeometry relative="1" as="geometry" />
        </mxCell>
        <mxCell id="l15Z7uQvLa0CSZMD8hMT-48" style="edgeStyle=orthogonalEdgeStyle;rounded=0;orthogonalLoop=1;jettySize=auto;html=1;entryX=0.5;entryY=0;entryDx=0;entryDy=0;" edge="1" parent="1" source="l15Z7uQvLa0CSZMD8hMT-17" target="l15Z7uQvLa0CSZMD8hMT-24">
          <mxGeometry relative="1" as="geometry" />
        </mxCell>
        <mxCell id="l15Z7uQvLa0CSZMD8hMT-17" value="数据库" style="rounded=0;whiteSpace=wrap;html=1;" vertex="1" parent="1">
          <mxGeometry x="430" y="280" width="90" height="50" as="geometry" />
        </mxCell>
        <mxCell id="l15Z7uQvLa0CSZMD8hMT-54" style="edgeStyle=orthogonalEdgeStyle;rounded=0;orthogonalLoop=1;jettySize=auto;html=1;" edge="1" parent="1" source="l15Z7uQvLa0CSZMD8hMT-18" target="l15Z7uQvLa0CSZMD8hMT-26">
          <mxGeometry relative="1" as="geometry" />
        </mxCell>
        <mxCell id="l15Z7uQvLa0CSZMD8hMT-18" value="办公软件" style="rounded=0;whiteSpace=wrap;html=1;" vertex="1" parent="1">
          <mxGeometry x="540" y="280" width="100" height="50" as="geometry" />
        </mxCell>
        <mxCell id="l15Z7uQvLa0CSZMD8hMT-55" style="edgeStyle=orthogonalEdgeStyle;rounded=0;orthogonalLoop=1;jettySize=auto;html=1;exitX=0.5;exitY=1;exitDx=0;exitDy=0;entryX=0.5;entryY=0;entryDx=0;entryDy=0;" edge="1" parent="1" source="l15Z7uQvLa0CSZMD8hMT-19" target="l15Z7uQvLa0CSZMD8hMT-27">
          <mxGeometry relative="1" as="geometry" />
        </mxCell>
        <mxCell id="l15Z7uQvLa0CSZMD8hMT-56" style="edgeStyle=orthogonalEdgeStyle;rounded=0;orthogonalLoop=1;jettySize=auto;html=1;entryX=0.5;entryY=0;entryDx=0;entryDy=0;" edge="1" parent="1" source="l15Z7uQvLa0CSZMD8hMT-19" target="l15Z7uQvLa0CSZMD8hMT-28">
          <mxGeometry relative="1" as="geometry" />
        </mxCell>
        <mxCell id="l15Z7uQvLa0CSZMD8hMT-19" value="娱乐" style="rounded=0;whiteSpace=wrap;html=1;" vertex="1" parent="1">
          <mxGeometry x="680" y="280" width="80" height="50" as="geometry" />
        </mxCell>
        <mxCell id="l15Z7uQvLa0CSZMD8hMT-57" style="edgeStyle=orthogonalEdgeStyle;rounded=0;orthogonalLoop=1;jettySize=auto;html=1;exitX=0.5;exitY=1;exitDx=0;exitDy=0;entryX=0.5;entryY=0;entryDx=0;entryDy=0;" edge="1" parent="1" source="l15Z7uQvLa0CSZMD8hMT-22" target="l15Z7uQvLa0CSZMD8hMT-29">
          <mxGeometry relative="1" as="geometry" />
        </mxCell>
        <mxCell id="l15Z7uQvLa0CSZMD8hMT-22" value="杀毒" style="rounded=0;whiteSpace=wrap;html=1;" vertex="1" parent="1">
          <mxGeometry x="790" y="280" width="80" height="50" as="geometry" />
        </mxCell>
        <mxCell id="l15Z7uQvLa0CSZMD8hMT-80" style="edgeStyle=orthogonalEdgeStyle;rounded=0;orthogonalLoop=1;jettySize=auto;html=1;exitX=0.5;exitY=1;exitDx=0;exitDy=0;entryX=0.5;entryY=0;entryDx=0;entryDy=0;" edge="1" parent="1" source="l15Z7uQvLa0CSZMD8hMT-23" target="l15Z7uQvLa0CSZMD8hMT-32">
          <mxGeometry relative="1" as="geometry" />
        </mxCell>
        <mxCell id="l15Z7uQvLa0CSZMD8hMT-23" value="关系型" style="rounded=0;whiteSpace=wrap;html=1;" vertex="1" parent="1">
          <mxGeometry x="400" y="380" width="70" height="50" as="geometry" />
        </mxCell>
        <mxCell id="l15Z7uQvLa0CSZMD8hMT-61" style="edgeStyle=orthogonalEdgeStyle;rounded=0;orthogonalLoop=1;jettySize=auto;html=1;" edge="1" parent="1" source="l15Z7uQvLa0CSZMD8hMT-24" target="l15Z7uQvLa0CSZMD8hMT-34">
          <mxGeometry relative="1" as="geometry" />
        </mxCell>
        <mxCell id="l15Z7uQvLa0CSZMD8hMT-24" value="非关系型" style="rounded=0;whiteSpace=wrap;html=1;" vertex="1" parent="1">
          <mxGeometry x="490" y="380" width="66" height="50" as="geometry" />
        </mxCell>
        <mxCell id="l15Z7uQvLa0CSZMD8hMT-26" value="WPS" style="rounded=0;whiteSpace=wrap;html=1;" vertex="1" parent="1">
          <mxGeometry x="560" y="450" width="70" height="30" as="geometry" />
        </mxCell>
        <mxCell id="l15Z7uQvLa0CSZMD8hMT-60" style="edgeStyle=orthogonalEdgeStyle;rounded=0;orthogonalLoop=1;jettySize=auto;html=1;exitX=0.5;exitY=1;exitDx=0;exitDy=0;entryX=0.5;entryY=0;entryDx=0;entryDy=0;" edge="1" parent="1" source="l15Z7uQvLa0CSZMD8hMT-27" target="l15Z7uQvLa0CSZMD8hMT-35">
          <mxGeometry relative="1" as="geometry" />
        </mxCell>
        <mxCell id="l15Z7uQvLa0CSZMD8hMT-27" value="游戏" style="rounded=0;whiteSpace=wrap;html=1;" vertex="1" parent="1">
          <mxGeometry x="640" y="380" width="70" height="50" as="geometry" />
        </mxCell>
        <mxCell id="l15Z7uQvLa0CSZMD8hMT-59" style="edgeStyle=orthogonalEdgeStyle;rounded=0;orthogonalLoop=1;jettySize=auto;html=1;entryX=0.5;entryY=0;entryDx=0;entryDy=0;" edge="1" parent="1" source="l15Z7uQvLa0CSZMD8hMT-28" target="l15Z7uQvLa0CSZMD8hMT-36">
          <mxGeometry relative="1" as="geometry" />
        </mxCell>
        <mxCell id="l15Z7uQvLa0CSZMD8hMT-28" value="社交" style="rounded=0;whiteSpace=wrap;html=1;" vertex="1" parent="1">
          <mxGeometry x="740" y="380" width="70" height="50" as="geometry" />
        </mxCell>
        <mxCell id="l15Z7uQvLa0CSZMD8hMT-29" value="360" style="rounded=0;whiteSpace=wrap;html=1;" vertex="1" parent="1">
          <mxGeometry x="820" y="450" width="50" height="30" as="geometry" />
        </mxCell>
        <mxCell id="l15Z7uQvLa0CSZMD8hMT-30" value="NTFS" style="rounded=0;whiteSpace=wrap;html=1;" vertex="1" parent="1">
          <mxGeometry x="80" y="470" width="100" height="50" as="geometry" />
        </mxCell>
        <mxCell id="l15Z7uQvLa0CSZMD8hMT-31" value="网卡驱动" style="rounded=0;whiteSpace=wrap;html=1;" vertex="1" parent="1">
          <mxGeometry x="240" y="470" width="100" height="50" as="geometry" />
        </mxCell>
        <mxCell id="l15Z7uQvLa0CSZMD8hMT-32" value="MySQL" style="rounded=0;whiteSpace=wrap;html=1;" vertex="1" parent="1">
          <mxGeometry x="400" y="470" width="70" height="50" as="geometry" />
        </mxCell>
        <mxCell id="l15Z7uQvLa0CSZMD8hMT-34" value="Redis" style="rounded=0;whiteSpace=wrap;html=1;" vertex="1" parent="1">
          <mxGeometry x="490" y="510" width="70" height="40" as="geometry" />
        </mxCell>
        <mxCell id="l15Z7uQvLa0CSZMD8hMT-35" value="LOL" style="rounded=0;whiteSpace=wrap;html=1;" vertex="1" parent="1">
          <mxGeometry x="640" y="510" width="80" height="40" as="geometry" />
        </mxCell>
        <mxCell id="l15Z7uQvLa0CSZMD8hMT-36" value="微信" style="rounded=0;whiteSpace=wrap;html=1;" vertex="1" parent="1">
          <mxGeometry x="740" y="510" width="70" height="40" as="geometry" />
        </mxCell>
        <mxCell id="l15Z7uQvLa0CSZMD8hMT-72" value="依赖于" style="text;html=1;align=center;verticalAlign=middle;resizable=0;points=[];autosize=1;" vertex="1" parent="1">
          <mxGeometry x="380" y="190" width="50" height="20" as="geometry" />
        </mxCell>
        <mxCell id="l15Z7uQvLa0CSZMD8hMT-74" value="&lt;div&gt;包括&lt;/div&gt;" style="text;html=1;align=center;verticalAlign=middle;resizable=0;points=[];autosize=1;" vertex="1" parent="1">
          <mxGeometry x="200" y="250" width="40" height="20" as="geometry" />
        </mxCell>
        <mxCell id="l15Z7uQvLa0CSZMD8hMT-75" value="包括" style="text;html=1;align=center;verticalAlign=middle;resizable=0;points=[];autosize=1;" vertex="1" parent="1">
          <mxGeometry x="660" y="190" width="40" height="20" as="geometry" />
        </mxCell>
        <mxCell id="l15Z7uQvLa0CSZMD8hMT-76" value="包括" style="text;html=1;align=center;verticalAlign=middle;resizable=0;points=[];autosize=1;" vertex="1" parent="1">
          <mxGeometry x="575" y="240" width="40" height="20" as="geometry" />
        </mxCell>
        <mxCell id="l15Z7uQvLa0CSZMD8hMT-77" value="包括" style="text;html=1;align=center;verticalAlign=middle;resizable=0;points=[];autosize=1;" vertex="1" parent="1">
          <mxGeometry x="240" y="330" width="40" height="20" as="geometry" />
        </mxCell>
        <mxCell id="l15Z7uQvLa0CSZMD8hMT-78" value="包括" style="text;html=1;align=center;verticalAlign=middle;resizable=0;points=[];autosize=1;" vertex="1" parent="1">
          <mxGeometry x="470" y="330" width="40" height="20" as="geometry" />
        </mxCell>
        <mxCell id="l15Z7uQvLa0CSZMD8hMT-79" value="包括" style="text;html=1;align=center;verticalAlign=middle;resizable=0;points=[];autosize=1;" vertex="1" parent="1">
          <mxGeometry x="720" y="330" width="40" height="20" as="geometry" />
        </mxCell>
        <mxCell id="l15Z7uQvLa0CSZMD8hMT-81" value="例如" style="text;html=1;align=center;verticalAlign=middle;resizable=0;points=[];autosize=1;" vertex="1" parent="1">
          <mxGeometry x="130" y="440" width="40" height="20" as="geometry" />
        </mxCell>
        <mxCell id="l15Z7uQvLa0CSZMD8hMT-82" value="例如" style="text;html=1;align=center;verticalAlign=middle;resizable=0;points=[];autosize=1;" vertex="1" parent="1">
          <mxGeometry x="290" y="440" width="40" height="20" as="geometry" />
        </mxCell>
        <mxCell id="l15Z7uQvLa0CSZMD8hMT-83" value="例如" style="text;html=1;align=center;verticalAlign=middle;resizable=0;points=[];autosize=1;" vertex="1" parent="1">
          <mxGeometry x="434" y="440" width="40" height="20" as="geometry" />
        </mxCell>
        <mxCell id="l15Z7uQvLa0CSZMD8hMT-84" value="例如" style="text;html=1;align=center;verticalAlign=middle;resizable=0;points=[];autosize=1;" vertex="1" parent="1">
          <mxGeometry x="516" y="450" width="40" height="20" as="geometry" />
        </mxCell>
        <mxCell id="l15Z7uQvLa0CSZMD8hMT-85" value="例如" style="text;html=1;align=center;verticalAlign=middle;resizable=0;points=[];autosize=1;" vertex="1" parent="1">
          <mxGeometry x="590" y="350" width="40" height="20" as="geometry" />
        </mxCell>
        <mxCell id="l15Z7uQvLa0CSZMD8hMT-86" value="&lt;div&gt;例如&lt;/div&gt;" style="text;html=1;align=center;verticalAlign=middle;resizable=0;points=[];autosize=1;" vertex="1" parent="1">
          <mxGeometry x="670" y="450" width="40" height="20" as="geometry" />
        </mxCell>
        <mxCell id="l15Z7uQvLa0CSZMD8hMT-88" value="例如" style="text;html=1;align=center;verticalAlign=middle;resizable=0;points=[];autosize=1;" vertex="1" parent="1">
          <mxGeometry x="770" y="450" width="40" height="20" as="geometry" />
        </mxCell>
        <mxCell id="l15Z7uQvLa0CSZMD8hMT-89" value="例如" style="text;html=1;align=center;verticalAlign=middle;resizable=0;points=[];autosize=1;" vertex="1" parent="1">
          <mxGeometry x="830" y="360" width="40" height="20" as="geometry" />
        </mxCell>
      </root>
    </mxGraphModel>
  </diagram>
</mxfile>
